<svg width="21" height="21" viewBox="0 0 21 21" fill="none" xmlns="http://www.w3.org/2000/svg">
<g clip-path="url(#clip0_602_1880)">
<path d="M17.9564 8.67301C17.9564 14.5805 10.361 19.6441 10.361 19.6441C10.361 19.6441 2.76562 14.5805 2.76562 8.67301C2.76563 6.65859 3.56585 4.72668 4.99026 3.30227C6.41467 1.87786 8.34658 1.07764 10.361 1.07764C12.3754 1.07764 14.3073 1.87786 15.7317 3.30227C17.1562 4.72668 17.9564 6.65859 17.9564 8.67301Z" stroke="white" stroke-linecap="round" stroke-linejoin="round"/>
<path d="M10.3619 11.2047C11.7601 11.2047 12.8937 10.0712 12.8937 8.67291C12.8937 7.27464 11.7601 6.14111 10.3619 6.14111C8.9636 6.14111 7.83008 7.27464 7.83008 8.67291C7.83008 10.0712 8.9636 11.2047 10.3619 11.2047Z" stroke="white" stroke-linecap="round" stroke-linejoin="round"/>
</g>
<defs>
<clipPath id="clip0_602_1880">
<rect width="20.2543" height="20.2543" fill="white" transform="translate(0.234375 0.233643)"/>
</clipPath>
</defs>
</svg>
