<svg width="35" height="35" viewBox="0 0 35 35" fill="none" xmlns="http://www.w3.org/2000/svg">
<circle cx="17.4071" cy="17.4071" r="16.9071" fill="#959EAD" stroke="#F3F3F3"/>
<g clip-path="url(#clip0_602_1878)">
<path d="M24.9564 15.673C24.9564 21.5805 17.361 26.6441 17.361 26.6441C17.361 26.6441 9.76562 21.5805 9.76562 15.673C9.76563 13.6586 10.5658 11.7267 11.9903 10.3023C13.4147 8.87786 15.3466 8.07764 17.361 8.07764C19.3754 8.07764 21.3073 8.87786 22.7317 10.3023C24.1562 11.7267 24.9564 13.6586 24.9564 15.673Z" stroke="white" stroke-linecap="round" stroke-linejoin="round"/>
<path d="M17.3619 18.2047C18.7601 18.2047 19.8937 17.0712 19.8937 15.6729C19.8937 14.2746 18.7601 13.1411 17.3619 13.1411C15.9636 13.1411 14.8301 14.2746 14.8301 15.6729C14.8301 17.0712 15.9636 18.2047 17.3619 18.2047Z" stroke="white" stroke-linecap="round" stroke-linejoin="round"/>
</g>
<defs>
<clipPath id="clip0_602_1878">
<rect width="20.2543" height="20.2543" fill="white" transform="translate(7.23438 7.23364)"/>
</clipPath>
</defs>
</svg>
