<svg width="34" height="34" viewBox="0 0 34 34" fill="none" xmlns="http://www.w3.org/2000/svg">
<circle cx="16.7627" cy="16.7627" r="16.2627" fill="#959EAD" stroke="#F3F3F3"/>
<path d="M24.0372 11.0619C23.6221 10.6466 23.1292 10.3172 22.5868 10.0924C22.0444 9.86764 21.463 9.75195 20.8758 9.75195C20.2886 9.75195 19.7072 9.86764 19.1648 10.0924C18.6224 10.3172 18.1295 10.6466 17.7145 11.0619L16.853 11.9233L15.9916 11.0619C15.1531 10.2234 14.0159 9.75239 12.8302 9.75239C11.6445 9.75239 10.5073 10.2234 9.66885 11.0619C8.83041 11.9003 8.35938 13.0375 8.35938 14.2232C8.35937 15.409 8.83041 16.5461 9.66885 17.3846L10.5303 18.246L16.853 24.5687L23.1757 18.246L24.0372 17.3846C24.4524 16.9695 24.7819 16.4766 25.0066 15.9342C25.2314 15.3918 25.3471 14.8104 25.3471 14.2232C25.3471 13.6361 25.2314 13.0547 25.0066 12.5122C24.7819 11.9698 24.4524 11.4769 24.0372 11.0619Z" stroke="white" stroke-width="2" stroke-linecap="round" stroke-linejoin="round"/>
</svg>
