<svg width="28" height="28" viewBox="0 0 28 28" fill="none" xmlns="http://www.w3.org/2000/svg">
<path d="M27.9793 13.9896C27.9793 6.25907 21.7202 0 13.9896 0C6.25907 0 0 6.25907 0 13.9896C0 20.9741 5.11917 26.7565 11.8135 27.8135V18.0518H8.24871V14.0104H11.7928V10.9223C11.7928 7.4197 13.886 5.47151 17.0777 5.47151C18.6114 5.47151 20.2073 5.74094 20.2073 5.74094V9.18135H18.4456C16.7047 9.18135 16.1658 10.2591 16.1658 11.3575V13.9896H20.0415L19.4197 18.0311H16.1658V27.8135C22.8601 26.7772 27.9793 20.9741 27.9793 13.9896Z" fill="#848E9E"/>
<path d="M19.421 18.0518L20.0428 14.0103H16.1671V11.3782C16.1671 10.2798 16.706 9.20204 18.4469 9.20204H20.2086V5.76162C20.2086 5.76162 18.6127 5.49219 17.079 5.49219C13.8873 5.49219 11.794 7.41965 11.794 10.943V14.0311H8.25V18.0518H11.794V27.8342C12.4987 27.9378 13.2448 28 13.9702 28C14.6956 28 15.4417 27.9378 16.1464 27.8342V18.0518H19.421Z" fill="white"/>
</svg>
