<svg width="34" height="34" viewBox="0 0 34 34" fill="none" xmlns="http://www.w3.org/2000/svg">
<circle cx="16.7627" cy="16.7627" r="16.2627" fill="#959EAD" stroke="#F3F3F3"/>
<path d="M22.5828 11.7467H21.4251L19.9737 8.87226C19.9294 8.76649 19.8636 8.67094 19.7804 8.59159C19.6971 8.51223 19.5983 8.45077 19.4901 8.41105C19.3819 8.37133 19.2666 8.3542 19.1515 8.36073C19.0363 8.36726 18.9237 8.39732 18.8208 8.44901C18.7178 8.50071 18.6267 8.57294 18.5531 8.66119C18.4795 8.74944 18.4251 8.85181 18.3932 8.9619C18.3612 9.072 18.3525 9.18745 18.3675 9.30105C18.3825 9.41465 18.421 9.52394 18.4805 9.62211L19.5459 11.7467H13.8748L14.9402 9.62211C15.0216 9.42791 15.0261 9.2103 14.9526 9.01297C14.8792 8.81565 14.7333 8.65321 14.5443 8.55829C14.3553 8.46337 14.1371 8.44298 13.9335 8.50121C13.73 8.55945 13.5561 8.692 13.4469 8.87226L11.9956 11.7467H10.8379C10.2449 11.7557 9.67418 11.9723 9.22634 12.3584C8.77851 12.7444 8.48232 13.2752 8.39004 13.857C8.29776 14.4388 8.4153 15.0342 8.72193 15.5384C9.02857 16.0425 9.5046 16.4229 10.0661 16.6124L10.6869 22.8279C10.7495 23.4466 11.042 24.0199 11.5074 24.4359C11.9728 24.8518 12.5775 25.0806 13.2036 25.0775H20.2338C20.8599 25.0806 21.4647 24.8518 21.9301 24.4359C22.3954 24.0199 22.688 23.4466 22.7506 22.8279L23.3714 16.6124C23.9341 16.4223 24.4109 16.0405 24.7173 15.5347C25.0237 15.0289 25.14 14.4317 25.0455 13.8489C24.9511 13.2661 24.652 12.7353 24.2012 12.3506C23.7505 11.9658 23.1771 11.7519 22.5828 11.7467ZM21.0643 22.6613C21.0435 22.8675 20.946 23.0586 20.7908 23.1973C20.6357 23.3359 20.4341 23.4122 20.2254 23.4111H13.1952C12.9866 23.4122 12.785 23.3359 12.6298 23.1973C12.4747 23.0586 12.3772 22.8675 12.3563 22.6613L11.7607 16.7457H21.66L21.0643 22.6613ZM22.5828 15.0794H10.8379C10.6154 15.0794 10.402 14.9916 10.2447 14.8354C10.0873 14.6791 9.99895 14.4672 9.99895 14.2462C9.99895 14.0253 10.0873 13.8133 10.2447 13.6571C10.402 13.5008 10.6154 13.4131 10.8379 13.4131H22.5828C22.8053 13.4131 23.0187 13.5008 23.176 13.6571C23.3333 13.8133 23.4217 14.0253 23.4217 14.2462C23.4217 14.4672 23.3333 14.6791 23.176 14.8354C23.0187 14.9916 22.8053 15.0794 22.5828 15.0794Z" fill="white"/>
</svg>
