<svg width="57" height="57" viewBox="0 0 57 57" fill="none" xmlns="http://www.w3.org/2000/svg">
<path d="M2.375 29.6875V41.5625C2.375 42.1924 2.62522 42.7965 3.07062 43.2419C3.51602 43.6873 4.12011 43.9375 4.75 43.9375H7.125C7.125 45.8272 7.87567 47.6394 9.21186 48.9756C10.5481 50.3118 12.3603 51.0625 14.25 51.0625C16.1397 51.0625 17.9519 50.3118 19.2881 48.9756C20.6243 47.6394 21.375 45.8272 21.375 43.9375H35.625C35.625 45.8272 36.3757 47.6394 37.7119 48.9756C39.0481 50.3118 40.8603 51.0625 42.75 51.0625C44.6397 51.0625 46.4519 50.3118 47.7881 48.9756C49.1243 47.6394 49.875 45.8272 49.875 43.9375H52.25C52.8799 43.9375 53.484 43.6873 53.9294 43.2419C54.3748 42.7965 54.625 42.1924 54.625 41.5625V13.0625C54.625 11.1728 53.8743 9.36056 52.5381 8.02436C51.2019 6.68817 49.3897 5.9375 47.5 5.9375H26.125C24.2353 5.9375 22.4231 6.68817 21.0869 8.02436C19.7507 9.36056 19 11.1728 19 13.0625V17.8125H14.25C13.1439 17.8125 12.0529 18.07 11.0636 18.5647C10.0743 19.0594 9.21367 19.7776 8.55 20.6625L2.85 28.2625C2.78053 28.3657 2.72466 28.4775 2.68375 28.595L2.54125 28.8562C2.43643 29.1211 2.38012 29.4027 2.375 29.6875ZM40.375 43.9375C40.375 43.4678 40.5143 43.0086 40.7753 42.618C41.0362 42.2275 41.4072 41.923 41.8411 41.7433C42.2751 41.5635 42.7526 41.5165 43.2133 41.6081C43.674 41.6998 44.0972 41.926 44.4294 42.2581C44.7615 42.5903 44.9877 43.0135 45.0794 43.4742C45.171 43.9349 45.124 44.4124 44.9442 44.8464C44.7645 45.2803 44.46 45.6513 44.0695 45.9122C43.6789 46.1732 43.2197 46.3125 42.75 46.3125C42.1201 46.3125 41.516 46.0623 41.0706 45.6169C40.6252 45.1715 40.375 44.5674 40.375 43.9375ZM23.75 13.0625C23.75 12.4326 24.0002 11.8285 24.4456 11.3831C24.891 10.9377 25.4951 10.6875 26.125 10.6875H47.5C48.1299 10.6875 48.734 10.9377 49.1794 11.3831C49.6248 11.8285 49.875 12.4326 49.875 13.0625V39.1875H48.0225C47.3547 38.4528 46.5407 37.8657 45.6327 37.464C44.7248 37.0623 43.7429 36.8548 42.75 36.8548C41.7571 36.8548 40.7752 37.0623 39.8673 37.464C38.9593 37.8657 38.1453 38.4528 37.4775 39.1875H23.75V13.0625ZM19 27.3125H9.5L12.35 23.5125C12.5712 23.2175 12.8581 22.9781 13.1879 22.8132C13.5176 22.6483 13.8813 22.5625 14.25 22.5625H19V27.3125ZM11.875 43.9375C11.875 43.4678 12.0143 43.0086 12.2753 42.618C12.5362 42.2275 12.9072 41.923 13.3411 41.7433C13.7751 41.5635 14.2526 41.5165 14.7133 41.6081C15.174 41.6998 15.5972 41.926 15.9294 42.2581C16.2615 42.5903 16.4877 43.0135 16.5794 43.4742C16.671 43.9349 16.624 44.4124 16.4442 44.8464C16.2645 45.2803 15.96 45.6513 15.5695 45.9122C15.1789 46.1732 14.7197 46.3125 14.25 46.3125C13.6201 46.3125 13.016 46.0623 12.5706 45.6169C12.1252 45.1715 11.875 44.5674 11.875 43.9375ZM7.125 32.0625H19V38.665C17.5984 37.4123 15.7584 36.7643 13.8811 36.8622C12.0038 36.9601 10.2413 37.7959 8.9775 39.1875H7.125V32.0625Z" fill="#959EAD"/>
</svg>
