<svg width="27" height="27" viewBox="0 0 27 27" fill="none" xmlns="http://www.w3.org/2000/svg">
<path d="M22.5 10.0575C22.4883 9.95415 22.4657 9.85233 22.4325 9.75375V9.6525C22.3784 9.53683 22.3063 9.4305 22.2188 9.3375L15.4688 2.5875C15.3758 2.49999 15.2694 2.42784 15.1538 2.37375H15.0525C14.9382 2.30821 14.812 2.26614 14.6813 2.25H7.875C6.97989 2.25 6.12145 2.60558 5.48851 3.23851C4.85558 3.87145 4.5 4.72989 4.5 5.625V21.375C4.5 22.2701 4.85558 23.1286 5.48851 23.7615C6.12145 24.3944 6.97989 24.75 7.875 24.75H19.125C20.0201 24.75 20.8786 24.3944 21.5115 23.7615C22.1444 23.1286 22.5 22.2701 22.5 21.375V10.125C22.5 10.125 22.5 10.125 22.5 10.0575ZM15.75 6.08625L18.6637 9H16.875C16.5766 9 16.2905 8.88147 16.0795 8.6705C15.8685 8.45952 15.75 8.17337 15.75 7.875V6.08625ZM20.25 21.375C20.25 21.6734 20.1315 21.9595 19.9205 22.1705C19.7095 22.3815 19.4234 22.5 19.125 22.5H7.875C7.57663 22.5 7.29048 22.3815 7.0795 22.1705C6.86853 21.9595 6.75 21.6734 6.75 21.375V5.625C6.75 5.32663 6.86853 5.04048 7.0795 4.8295C7.29048 4.61853 7.57663 4.5 7.875 4.5H13.5V7.875C13.5 8.77011 13.8556 9.62855 14.4885 10.2615C15.1214 10.8944 15.9799 11.25 16.875 11.25H20.25V21.375Z" fill="white"/>
</svg>
