<svg width="28" height="28" viewBox="0 0 28 28" fill="none" xmlns="http://www.w3.org/2000/svg">
<path d="M14.0007 10.5002C13.3084 10.5002 12.6317 10.7054 12.0562 11.09C11.4806 11.4746 11.032 12.0212 10.7671 12.6608C10.5022 13.3003 10.4329 14.004 10.5679 14.683C10.703 15.3619 11.0363 15.9856 11.5258 16.475C12.0153 16.9645 12.6389 17.2979 13.3178 17.4329C13.9968 17.568 14.7005 17.4986 15.34 17.2337C15.9796 16.9688 16.5262 16.5202 16.9108 15.9447C17.2954 15.3691 17.5007 14.6924 17.5007 14.0002C17.5007 13.0719 17.1319 12.1817 16.4755 11.5253C15.8191 10.8689 14.9289 10.5002 14.0007 10.5002ZM14.0007 15.1668C13.7699 15.1668 13.5443 15.0984 13.3525 14.9702C13.1606 14.842 13.0111 14.6598 12.9228 14.4466C12.8345 14.2334 12.8114 13.9989 12.8564 13.7726C12.9014 13.5462 13.0125 13.3384 13.1757 13.1752C13.3389 13.012 13.5467 12.9009 13.773 12.8559C13.9994 12.8109 14.2339 12.834 14.4471 12.9223C14.6603 13.0106 14.8425 13.1601 14.9707 13.352C15.0989 13.5439 15.1673 13.7694 15.1673 14.0002C15.1673 14.3096 15.0444 14.6063 14.8256 14.8251C14.6068 15.0439 14.3101 15.1668 14.0007 15.1668ZM24.5007 12.8335H23.2523C22.9919 10.7801 22.0564 8.87158 20.5928 7.40801C19.1292 5.94444 17.2207 5.00889 15.1673 4.7485V3.50016C15.1673 3.19074 15.0444 2.894 14.8256 2.6752C14.6068 2.45641 14.3101 2.3335 14.0007 2.3335C13.6912 2.3335 13.3945 2.45641 13.1757 2.6752C12.9569 2.894 12.834 3.19074 12.834 3.50016V4.7485C10.7806 5.00889 8.87207 5.94444 7.4085 7.40801C5.94493 8.87158 5.00938 10.7801 4.74898 12.8335H3.50065C3.19123 12.8335 2.89449 12.9564 2.67569 13.1752C2.4569 13.394 2.33398 13.6907 2.33398 14.0002C2.33398 14.3096 2.4569 14.6063 2.67569 14.8251C2.89449 15.0439 3.19123 15.1668 3.50065 15.1668H4.74898C5.00938 17.2202 5.94493 19.1287 7.4085 20.5923C8.87207 22.0559 10.7806 22.9914 12.834 23.2518V24.5002C12.834 24.8096 12.9569 25.1063 13.1757 25.3251C13.3945 25.5439 13.6912 25.6668 14.0007 25.6668C14.3101 25.6668 14.6068 25.5439 14.8256 25.3251C15.0444 25.1063 15.1673 24.8096 15.1673 24.5002V23.2518C17.2207 22.9914 19.1292 22.0559 20.5928 20.5923C22.0564 19.1287 22.9919 17.2202 23.2523 15.1668H24.5007C24.8101 15.1668 25.1068 15.0439 25.3256 14.8251C25.5444 14.6063 25.6673 14.3096 25.6673 14.0002C25.6673 13.6907 25.5444 13.394 25.3256 13.1752C25.1068 12.9564 24.8101 12.8335 24.5007 12.8335ZM14.0007 21.0002C12.6162 21.0002 11.2628 20.5896 10.1117 19.8204C8.96051 19.0513 8.06331 17.958 7.53349 16.6789C7.00368 15.3999 6.86506 13.9924 7.13515 12.6345C7.40525 11.2767 8.07194 10.0294 9.0509 9.05042C10.0299 8.07145 11.2772 7.40476 12.635 7.13467C13.9929 6.86457 15.4004 7.00319 16.6794 7.53301C17.9585 8.06282 19.0518 8.96003 19.8209 10.1112C20.5901 11.2623 21.0007 12.6157 21.0007 14.0002C21.0007 15.8567 20.2632 17.6372 18.9504 18.9499C17.6376 20.2627 15.8572 21.0002 14.0007 21.0002Z" fill="white"/>
</svg>
