<svg width="28" height="28" viewBox="0 0 28 28" fill="none" xmlns="http://www.w3.org/2000/svg">
<path d="M1.16602 14.5834V20.4167C1.16602 20.7262 1.28893 21.0229 1.50772 21.2417C1.72652 21.4605 2.02326 21.5834 2.33268 21.5834H3.49935C3.49935 22.5117 3.8681 23.4019 4.52448 24.0583C5.18085 24.7147 6.07109 25.0834 6.99935 25.0834C7.92761 25.0834 8.81785 24.7147 9.47422 24.0583C10.1306 23.4019 10.4993 22.5117 10.4993 21.5834H17.4993C17.4993 22.5117 17.8681 23.4019 18.5245 24.0583C19.1809 24.7147 20.0711 25.0834 20.9993 25.0834C21.9276 25.0834 22.8178 24.7147 23.4742 24.0583C24.1306 23.4019 24.4993 22.5117 24.4994 21.5834H25.666C25.9754 21.5834 26.2722 21.4605 26.491 21.2417C26.7098 21.0229 26.8327 20.7262 26.8327 20.4167V6.41675C26.8327 5.48849 26.4639 4.59825 25.8076 3.94187C25.1512 3.2855 24.2609 2.91675 23.3327 2.91675H12.8327C11.9044 2.91675 11.0142 3.2855 10.3578 3.94187C9.70143 4.59825 9.33268 5.48849 9.33268 6.41675V8.75008H6.99935C6.45599 8.75008 5.9201 8.87659 5.4341 9.11959C4.94811 9.36258 4.52536 9.7154 4.19935 10.1501L1.39935 13.8834C1.36523 13.9341 1.33778 13.989 1.31768 14.0467L1.24768 14.1751C1.19619 14.3052 1.16853 14.4435 1.16602 14.5834ZM19.8327 21.5834C19.8327 21.3527 19.9011 21.1271 20.0293 20.9352C20.1575 20.7434 20.3397 20.5939 20.5529 20.5056C20.7661 20.4173 21.0006 20.3941 21.227 20.4392C21.4533 20.4842 21.6611 20.5953 21.8243 20.7585C21.9875 20.9216 22.0986 21.1295 22.1436 21.3558C22.1886 21.5821 22.1655 21.8167 22.0772 22.0299C21.9889 22.2431 21.8394 22.4253 21.6475 22.5535C21.4557 22.6817 21.2301 22.7501 20.9993 22.7501C20.6899 22.7501 20.3932 22.6272 20.1744 22.4084C19.9556 22.1896 19.8327 21.8928 19.8327 21.5834ZM11.666 6.41675C11.666 6.10733 11.7889 5.81058 12.0077 5.59179C12.2265 5.373 12.5233 5.25008 12.8327 5.25008H23.3327C23.6421 5.25008 23.9389 5.373 24.1576 5.59179C24.3764 5.81058 24.4994 6.10733 24.4994 6.41675V19.2501H23.5893C23.2613 18.8892 22.8615 18.6008 22.4154 18.4035C21.9694 18.2061 21.4871 18.1042 20.9993 18.1042C20.5116 18.1042 20.0293 18.2061 19.5833 18.4035C19.1372 18.6008 18.7374 18.8892 18.4093 19.2501H11.666V6.41675ZM9.33268 13.4167H4.66602L6.06602 11.5501C6.17469 11.4052 6.3156 11.2876 6.4776 11.2066C6.6396 11.1256 6.81823 11.0834 6.99935 11.0834H9.33268V13.4167ZM5.83268 21.5834C5.83268 21.3527 5.90111 21.1271 6.0293 20.9352C6.1575 20.7434 6.3397 20.5939 6.55289 20.5056C6.76607 20.4173 7.00064 20.3941 7.22695 20.4392C7.45327 20.4842 7.66115 20.5953 7.82431 20.7585C7.98747 20.9216 8.09858 21.1295 8.1436 21.3558C8.18862 21.5821 8.16551 21.8167 8.07721 22.0299C7.98891 22.2431 7.83937 22.4253 7.64751 22.5535C7.45566 22.6817 7.23009 22.7501 6.99935 22.7501C6.68993 22.7501 6.39318 22.6272 6.17439 22.4084C5.9556 22.1896 5.83268 21.8928 5.83268 21.5834ZM3.49935 15.7501H9.33268V18.9934C8.64415 18.3781 7.74034 18.0597 6.81816 18.1078C5.89598 18.1559 5.03016 18.5665 4.40935 19.2501H3.49935V15.7501Z" fill="white"/>
</svg>
