<svg width="28" height="28" viewBox="0 0 28 28" fill="none" xmlns="http://www.w3.org/2000/svg">
<path d="M22.1673 8.16667H21.0007V7C21.0007 6.07174 20.6319 5.1815 19.9755 4.52513C19.3191 3.86875 18.4289 3.5 17.5007 3.5H5.83398C4.90573 3.5 4.01549 3.86875 3.35911 4.52513C2.70273 5.1815 2.33398 6.07174 2.33398 7V21C2.33398 21.9283 2.70273 22.8185 3.35911 23.4749C4.01549 24.1313 4.90573 24.5 5.83398 24.5H22.1673C23.0956 24.5 23.9858 24.1313 24.6422 23.4749C25.2986 22.8185 25.6673 21.9283 25.6673 21V11.6667C25.6673 10.7384 25.2986 9.84817 24.6422 9.19179C23.9858 8.53542 23.0956 8.16667 22.1673 8.16667ZM5.83398 5.83333H17.5007C17.8101 5.83333 18.1068 5.95625 18.3256 6.17504C18.5444 6.39383 18.6673 6.69058 18.6673 7V8.16667H5.83398C5.52456 8.16667 5.22782 8.04375 5.00903 7.82496C4.79023 7.60616 4.66732 7.30942 4.66732 7C4.66732 6.69058 4.79023 6.39383 5.00903 6.17504C5.22782 5.95625 5.52456 5.83333 5.83398 5.83333ZM23.334 17.5H22.1673C21.8579 17.5 21.5612 17.3771 21.3424 17.1583C21.1236 16.9395 21.0007 16.6428 21.0007 16.3333C21.0007 16.0239 21.1236 15.7272 21.3424 15.5084C21.5612 15.2896 21.8579 15.1667 22.1673 15.1667H23.334V17.5ZM23.334 12.8333H22.1673C21.2391 12.8333 20.3488 13.2021 19.6924 13.8585C19.0361 14.5148 18.6673 15.4051 18.6673 16.3333C18.6673 17.2616 19.0361 18.1518 19.6924 18.8082C20.3488 19.4646 21.2391 19.8333 22.1673 19.8333H23.334V21C23.334 21.3094 23.2111 21.6062 22.9923 21.825C22.7735 22.0438 22.4767 22.1667 22.1673 22.1667H5.83398C5.52456 22.1667 5.22782 22.0438 5.00903 21.825C4.79023 21.6062 4.66732 21.3094 4.66732 21V10.3017C5.04213 10.4335 5.43666 10.5006 5.83398 10.5H22.1673C22.4767 10.5 22.7735 10.6229 22.9923 10.8417C23.2111 11.0605 23.334 11.3572 23.334 11.6667V12.8333Z" fill="white"/>
</svg>
