<svg width="20" height="20" viewBox="0 0 20 20" fill="none" xmlns="http://www.w3.org/2000/svg">
<path d="M17.0156 4.05228H15.6306L13.8943 0.613566C13.8413 0.487034 13.7625 0.37273 13.663 0.277795C13.5634 0.182861 13.4452 0.109337 13.3158 0.0618182C13.1863 0.0142993 13.0484 -0.00619319 12.9106 0.00162138C12.7728 0.00943595 12.6382 0.0453897 12.515 0.107236C12.3918 0.169081 12.2829 0.25549 12.1948 0.361062C12.1068 0.466635 12.0417 0.589101 12.0035 0.720808C11.9653 0.852515 11.9548 0.990633 11.9728 1.12653C11.9908 1.26243 12.0368 1.39318 12.1079 1.51062L13.3825 4.05228H6.59811L7.87269 1.51062C7.97011 1.27829 7.97542 1.01796 7.88757 0.7819C7.79971 0.545839 7.62519 0.351522 7.39905 0.237964C7.17291 0.124405 6.91188 0.100012 6.66838 0.169681C6.42487 0.23935 6.21692 0.397924 6.08627 0.613566L4.35002 4.05228H2.96504C2.25568 4.063 1.57291 4.32214 1.03716 4.78402C0.501408 5.24589 0.147085 5.88081 0.036685 6.57681C-0.0737153 7.27281 0.0668992 7.98517 0.433728 8.58825C0.800557 9.19133 1.37004 9.6464 2.04172 9.87319L2.78439 17.3088C2.85929 18.0489 3.20927 18.7348 3.766 19.2324C4.32273 19.73 5.04623 20.0037 5.79522 20H14.2055C14.9545 20.0037 15.678 19.73 16.2347 19.2324C16.7914 18.7348 17.1414 18.0489 17.2163 17.3088L17.959 9.87319C18.6321 9.64573 19.2025 9.189 19.5691 8.5839C19.9356 7.9788 20.0747 7.26438 19.9617 6.56718C19.8487 5.86998 19.4909 5.23499 18.9517 4.77469C18.4125 4.31439 17.7266 4.05848 17.0156 4.05228ZM15.199 17.1094C15.1741 17.3562 15.0574 17.5848 14.8718 17.7506C14.6863 17.9165 14.4451 18.0077 14.1954 18.0065H5.78518C5.53552 18.0077 5.29435 17.9165 5.10878 17.7506C4.9232 17.5848 4.80654 17.3562 4.78158 17.1094L4.06901 10.0327H15.9116L15.199 17.1094ZM17.0156 8.0392H2.96504C2.69887 8.0392 2.4436 7.93419 2.25539 7.74727C2.06717 7.56035 1.96144 7.30682 1.96144 7.04247C1.96144 6.77812 2.06717 6.5246 2.25539 6.33768C2.4436 6.15076 2.69887 6.04574 2.96504 6.04574H17.0156C17.2817 6.04574 17.537 6.15076 17.7252 6.33768C17.9134 6.5246 18.0192 6.77812 18.0192 7.04247C18.0192 7.30682 17.9134 7.56035 17.7252 7.74727C17.537 7.93419 17.2817 8.0392 17.0156 8.0392Z" fill="white"/>
</svg>
